<svg width="250" height="31" viewBox="0 0 250 31" fill="none" xmlns="http://www.w3.org/2000/svg">
<path d="M247.913 19.4744C247.95 19.3519 247.988 19.23 248.02 19.1044C249.394 13.7192 246.04 7.3523 240.363 4C242.851 7.31638 243.951 11.3331 242.973 14.846C242.886 15.1592 242.781 15.4601 242.666 15.7524C242.54 15.6713 242.382 15.5789 242.169 15.4638C242.169 15.4638 236.522 12.035 230.402 5.97061C230.242 5.81125 233.666 10.7835 237.552 14.8208C235.721 13.81 230.619 10.1593 227.389 7.25221C227.786 7.90314 228.258 8.52981 228.777 9.13315C231.474 12.4971 234.992 16.648 239.206 19.8352C236.245 21.6172 232.061 21.7557 227.895 19.837C226.865 19.362 225.896 18.7891 225 18.1381C226.763 20.912 229.479 23.3051 232.785 24.7024C236.726 26.3684 240.646 26.2554 243.565 24.7297L243.563 24.7331C243.573 24.727 243.584 24.7205 243.594 24.7144C243.726 24.6453 243.855 24.5741 243.982 24.4995C245.392 23.7874 248.144 23.0849 249.623 25.9146C249.987 26.611 250.761 22.9203 247.916 19.4774C247.915 19.4759 247.914 19.4753 247.913 19.4744Z" fill="#FCF3DF"/>
<path d="M1.87568 25V5.025H6.32568V9.825L6.10068 12.35C6.61735 11.8667 7.22568 11.425 7.92568 11.025C8.64235 10.625 9.48402 10.425 10.4507 10.425C12.0007 10.425 13.1257 10.9417 13.8257 11.975C14.5257 13.0083 14.8757 14.4167 14.8757 16.2V25H10.4257V16.75C10.4257 15.7667 10.2924 15.1 10.0257 14.75C9.75902 14.4 9.34235 14.225 8.77568 14.225C8.27568 14.225 7.85068 14.3333 7.50068 14.55C7.15068 14.7667 6.75902 15.0833 6.32568 15.5V25H1.87568ZM24.5058 25.35C23.3058 25.35 22.1724 25.0583 21.1058 24.475C20.0391 23.875 19.1724 23.0167 18.5058 21.9C17.8558 20.7833 17.5308 19.4417 17.5308 17.875C17.5308 16.3083 17.8558 14.975 18.5058 13.875C19.1724 12.7583 20.0391 11.9083 21.1058 11.325C22.1724 10.725 23.3058 10.425 24.5058 10.425C25.4058 10.425 26.2724 10.5917 27.1058 10.925C27.9391 11.2583 28.6808 11.75 29.3308 12.4C29.9808 13.0333 30.4974 13.8083 30.8808 14.725C31.2641 15.6417 31.4558 16.6917 31.4558 17.875C31.4558 19.4417 31.1224 20.7833 30.4558 21.9C29.8058 23.0167 28.9474 23.875 27.8808 24.475C26.8308 25.0583 25.7058 25.35 24.5058 25.35ZM24.5058 21.75C25.0558 21.75 25.5058 21.5917 25.8558 21.275C26.2224 20.9583 26.4891 20.5083 26.6558 19.925C26.8224 19.3417 26.9058 18.6583 26.9058 17.875C26.9058 17.0917 26.8224 16.4167 26.6558 15.85C26.4891 15.2667 26.2224 14.8167 25.8558 14.5C25.5058 14.1833 25.0558 14.025 24.5058 14.025C23.9558 14.025 23.4974 14.1833 23.1308 14.5C22.7808 14.8167 22.5141 15.2667 22.3308 15.85C22.1641 16.4167 22.0808 17.0917 22.0808 17.875C22.0808 18.6583 22.1641 19.3417 22.3308 19.925C22.5141 20.5083 22.7808 20.9583 23.1308 21.275C23.4974 21.5917 23.9558 21.75 24.5058 21.75ZM39.3487 30.975C38.2654 30.975 37.2654 30.85 36.3487 30.6C35.4487 30.3667 34.7321 29.9833 34.1987 29.45C33.6654 28.9333 33.3987 28.25 33.3987 27.4C33.3987 26.8167 33.5654 26.2833 33.8987 25.8C34.2321 25.3333 34.7321 24.9333 35.3987 24.6V24.475C35.0321 24.225 34.7237 23.9083 34.4737 23.525C34.2237 23.125 34.0987 22.625 34.0987 22.025C34.0987 21.525 34.2487 21.0417 34.5487 20.575C34.8487 20.0917 35.2321 19.6917 35.6987 19.375V19.275C35.1821 18.925 34.7237 18.4333 34.3237 17.8C33.9404 17.15 33.7487 16.4083 33.7487 15.575C33.7487 14.425 34.0321 13.4667 34.5987 12.7C35.1654 11.9333 35.8987 11.3667 36.7987 11C37.7154 10.6167 38.6821 10.425 39.6987 10.425C40.1154 10.425 40.5154 10.4583 40.8987 10.525C41.2821 10.575 41.6321 10.6583 41.9487 10.775H47.1737V14H44.9987C45.0987 14.2 45.1821 14.4583 45.2487 14.775C45.3321 15.075 45.3737 15.3917 45.3737 15.725C45.3737 16.825 45.1154 17.7333 44.5987 18.45C44.0987 19.15 43.4154 19.6667 42.5487 20C41.6987 20.3333 40.7487 20.5 39.6987 20.5C39.4654 20.5 39.2071 20.4833 38.9237 20.45C38.6404 20.4 38.3404 20.3333 38.0237 20.25C37.8737 20.4 37.7571 20.5417 37.6737 20.675C37.6071 20.8083 37.5737 21 37.5737 21.25C37.5737 21.5667 37.7321 21.8083 38.0487 21.975C38.3654 22.125 38.9071 22.2 39.6737 22.2H41.9237C43.6737 22.2 45.0237 22.4917 45.9737 23.075C46.9404 23.6417 47.4237 24.5667 47.4237 25.85C47.4237 26.85 47.0904 27.7333 46.4237 28.5C45.7737 29.2667 44.8404 29.8667 43.6237 30.3C42.4237 30.75 40.9987 30.975 39.3487 30.975ZM39.6987 17.825C40.0487 17.825 40.3571 17.7417 40.6237 17.575C40.9071 17.4083 41.1237 17.1583 41.2737 16.825C41.4404 16.4917 41.5237 16.075 41.5237 15.575C41.5237 15.0917 41.4404 14.6917 41.2737 14.375C41.1237 14.0583 40.9071 13.8167 40.6237 13.65C40.3571 13.4833 40.0487 13.4 39.6987 13.4C39.3654 13.4 39.0571 13.4833 38.7737 13.65C38.5071 13.8167 38.2904 14.0583 38.1237 14.375C37.9737 14.6917 37.8987 15.0917 37.8987 15.575C37.8987 16.075 37.9737 16.4917 38.1237 16.825C38.2904 17.1583 38.5071 17.4083 38.7737 17.575C39.0571 17.7417 39.3654 17.825 39.6987 17.825ZM40.0487 28.2C40.6654 28.2 41.1987 28.125 41.6487 27.975C42.1154 27.8417 42.4821 27.6583 42.7487 27.425C43.0154 27.1917 43.1487 26.925 43.1487 26.625C43.1487 26.1917 42.9654 25.9083 42.5987 25.775C42.2487 25.6583 41.7404 25.6 41.0737 25.6H39.7237C39.2071 25.6 38.7987 25.5833 38.4987 25.55C38.1987 25.5333 37.9321 25.4917 37.6987 25.425C37.4821 25.625 37.3154 25.825 37.1987 26.025C37.0987 26.2417 37.0487 26.4667 37.0487 26.7C37.0487 27.2 37.3237 27.575 37.8737 27.825C38.4237 28.075 39.1487 28.2 40.0487 28.2ZM53.954 25.35C52.3873 25.35 51.254 24.8333 50.554 23.8C49.854 22.75 49.504 21.3417 49.504 19.575V10.775H53.954V19.025C53.954 19.9917 54.0873 20.6583 54.354 21.025C54.6207 21.375 55.0373 21.55 55.604 21.55C56.104 21.55 56.529 21.4417 56.879 21.225C57.2457 20.9917 57.6123 20.6167 57.979 20.1V10.775H62.429V25H58.804L58.479 23.05H58.379C57.7957 23.75 57.154 24.3083 56.454 24.725C55.754 25.1417 54.9207 25.35 53.954 25.35ZM66.0114 25V10.775H69.6364L69.9614 12.575H70.0364C70.6198 11.9917 71.2448 11.4917 71.9114 11.075C72.5781 10.6417 73.3948 10.425 74.3614 10.425C75.3448 10.425 76.1448 10.625 76.7614 11.025C77.3948 11.425 77.8948 12.0083 78.2614 12.775C78.8781 12.1417 79.5364 11.5917 80.2364 11.125C80.9364 10.6583 81.7614 10.425 82.7114 10.425C84.2614 10.425 85.3864 10.9417 86.0864 11.975C86.8031 13.0083 87.1614 14.4167 87.1614 16.2V25H82.7114V16.75C82.7114 15.7667 82.5781 15.1 82.3114 14.75C82.0614 14.4 81.6531 14.225 81.0864 14.225C80.7698 14.225 80.4198 14.3333 80.0364 14.55C79.6531 14.75 79.2448 15.0667 78.8114 15.5V25H74.3614V16.75C74.3614 15.7667 74.2281 15.1 73.9614 14.75C73.6948 14.4 73.2781 14.225 72.7114 14.225C72.3948 14.225 72.0448 14.3333 71.6614 14.55C71.2781 14.75 70.8781 15.0667 70.4614 15.5V25H66.0114ZM94.2452 25.35C93.3785 25.35 92.6285 25.1583 91.9952 24.775C91.3619 24.375 90.8702 23.85 90.5202 23.2C90.1869 22.5333 90.0202 21.8083 90.0202 21.025C90.0202 19.525 90.6452 18.3583 91.8952 17.525C93.1452 16.675 95.1535 16.1 97.9202 15.8C97.8869 15.4167 97.7952 15.0917 97.6452 14.825C97.4952 14.5417 97.2619 14.3333 96.9452 14.2C96.6452 14.05 96.2535 13.975 95.7702 13.975C95.2035 13.975 94.6202 14.0833 94.0202 14.3C93.4202 14.5167 92.7619 14.825 92.0452 15.225L90.4952 12.3C91.1285 11.9167 91.7702 11.5917 92.4202 11.325C93.0869 11.0417 93.7702 10.825 94.4702 10.675C95.1702 10.5083 95.8869 10.425 96.6202 10.425C97.8535 10.425 98.8952 10.6583 99.7452 11.125C100.595 11.5917 101.245 12.3083 101.695 13.275C102.145 14.225 102.37 15.4417 102.37 16.925V25H98.7452L98.4452 23.575H98.3202C97.7369 24.0917 97.1035 24.5167 96.4202 24.85C95.7535 25.1833 95.0285 25.35 94.2452 25.35ZM95.7702 21.9C96.2202 21.9 96.6119 21.8 96.9452 21.6C97.2785 21.4 97.6035 21.125 97.9202 20.775V18.5C97.0035 18.6167 96.2702 18.7833 95.7202 19C95.1869 19.2167 94.8035 19.4667 94.5702 19.75C94.3535 20.0333 94.2452 20.3417 94.2452 20.675C94.2452 21.0917 94.3785 21.4 94.6452 21.6C94.9285 21.8 95.3035 21.9 95.7702 21.9ZM112.081 25.35C110.748 25.35 109.548 25.0583 108.481 24.475C107.415 23.875 106.565 23.0167 105.931 21.9C105.315 20.7833 105.006 19.4417 105.006 17.875C105.006 16.3083 105.348 14.975 106.031 13.875C106.731 12.7583 107.648 11.9083 108.781 11.325C109.931 10.725 111.165 10.425 112.481 10.425C113.348 10.425 114.123 10.5667 114.806 10.85C115.49 11.1167 116.098 11.4833 116.631 11.95L114.556 14.775C114.24 14.5083 113.931 14.3167 113.631 14.2C113.348 14.0833 113.056 14.025 112.756 14.025C112.106 14.025 111.54 14.1833 111.056 14.5C110.573 14.8167 110.198 15.2667 109.931 15.85C109.681 16.4167 109.556 17.0917 109.556 17.875C109.556 18.6583 109.69 19.3417 109.956 19.925C110.223 20.5083 110.581 20.9583 111.031 21.275C111.498 21.5917 112.015 21.75 112.581 21.75C113.031 21.75 113.465 21.6583 113.881 21.475C114.298 21.275 114.69 21.0333 115.056 20.75L116.781 23.675C116.081 24.2917 115.306 24.725 114.456 24.975C113.623 25.225 112.831 25.35 112.081 25.35ZM119.234 25V5.025H123.684V9.825L123.459 12.35C123.976 11.8667 124.584 11.425 125.284 11.025C126.001 10.625 126.842 10.425 127.809 10.425C129.359 10.425 130.484 10.9417 131.184 11.975C131.884 13.0083 132.234 14.4167 132.234 16.2V25H127.784V16.75C127.784 15.7667 127.651 15.1 127.384 14.75C127.117 14.4 126.701 14.225 126.134 14.225C125.634 14.225 125.209 14.3333 124.859 14.55C124.509 14.7667 124.117 15.0833 123.684 15.5V25H119.234ZM139.989 25.35C138.422 25.35 137.289 24.8333 136.589 23.8C135.889 22.75 135.539 21.3417 135.539 19.575V10.775H139.989V19.025C139.989 19.9917 140.122 20.6583 140.389 21.025C140.656 21.375 141.072 21.55 141.639 21.55C142.139 21.55 142.564 21.4417 142.914 21.225C143.281 20.9917 143.647 20.6167 144.014 20.1V10.775H148.464V25H144.839L144.514 23.05H144.414C143.831 23.75 143.189 24.3083 142.489 24.725C141.789 25.1417 140.956 25.35 139.989 25.35ZM163.359 25.35C162.176 25.35 161.209 25.1167 160.459 24.65C159.726 24.1667 159.184 23.5083 158.834 22.675C158.501 21.825 158.334 20.8417 158.334 19.725V14.25H156.409V10.95L158.609 10.775L159.109 7H162.784V10.775H166.134V14.25H162.784V19.675C162.784 20.4583 162.951 21.025 163.284 21.375C163.634 21.7083 164.068 21.875 164.584 21.875C164.818 21.875 165.051 21.85 165.284 21.8C165.518 21.7333 165.718 21.6667 165.884 21.6L166.584 24.825C166.218 24.9417 165.768 25.0583 165.234 25.175C164.718 25.2917 164.093 25.35 163.359 25.35ZM174.634 25.35C173.268 25.35 172.034 25.0583 170.934 24.475C169.851 23.875 168.984 23.0167 168.334 21.9C167.701 20.7833 167.384 19.4417 167.384 17.875C167.384 16.725 167.568 15.6917 167.934 14.775C168.318 13.8583 168.826 13.075 169.459 12.425C170.109 11.775 170.834 11.2833 171.634 10.95C172.451 10.6 173.284 10.425 174.134 10.425C175.501 10.425 176.634 10.725 177.534 11.325C178.434 11.925 179.109 12.7417 179.559 13.775C180.009 14.8083 180.234 15.975 180.234 17.275C180.234 17.675 180.209 18.05 180.159 18.4C180.126 18.75 180.084 19.0167 180.034 19.2H171.684C171.818 19.85 172.051 20.375 172.384 20.775C172.718 21.175 173.126 21.475 173.609 21.675C174.093 21.8583 174.634 21.95 175.234 21.95C175.751 21.95 176.251 21.875 176.734 21.725C177.218 21.575 177.718 21.35 178.234 21.05L179.709 23.725C178.976 24.2417 178.151 24.6417 177.234 24.925C176.334 25.2083 175.468 25.35 174.634 25.35ZM171.609 16.275H176.459C176.459 15.575 176.284 14.9917 175.934 14.525C175.601 14.0583 175.026 13.825 174.209 13.825C173.809 13.825 173.426 13.9167 173.059 14.1C172.709 14.2667 172.401 14.5333 172.134 14.9C171.884 15.25 171.709 15.7083 171.609 16.275ZM189.352 25.35C188.019 25.35 186.819 25.0583 185.752 24.475C184.685 23.875 183.835 23.0167 183.202 21.9C182.585 20.7833 182.277 19.4417 182.277 17.875C182.277 16.3083 182.619 14.975 183.302 13.875C184.002 12.7583 184.919 11.9083 186.052 11.325C187.202 10.725 188.435 10.425 189.752 10.425C190.619 10.425 191.394 10.5667 192.077 10.85C192.76 11.1167 193.369 11.4833 193.902 11.95L191.827 14.775C191.51 14.5083 191.202 14.3167 190.902 14.2C190.619 14.0833 190.327 14.025 190.027 14.025C189.377 14.025 188.81 14.1833 188.327 14.5C187.844 14.8167 187.469 15.2667 187.202 15.85C186.952 16.4167 186.827 17.0917 186.827 17.875C186.827 18.6583 186.96 19.3417 187.227 19.925C187.494 20.5083 187.852 20.9583 188.302 21.275C188.769 21.5917 189.285 21.75 189.852 21.75C190.302 21.75 190.735 21.6583 191.152 21.475C191.569 21.275 191.96 21.0333 192.327 20.75L194.052 23.675C193.352 24.2917 192.577 24.725 191.727 24.975C190.894 25.225 190.102 25.35 189.352 25.35ZM196.505 25V5.025H200.955V9.825L200.73 12.35C201.246 11.8667 201.855 11.425 202.555 11.025C203.271 10.625 204.113 10.425 205.08 10.425C206.63 10.425 207.755 10.9417 208.455 11.975C209.155 13.0083 209.505 14.4167 209.505 16.2V25H205.055V16.75C205.055 15.7667 204.921 15.1 204.655 14.75C204.388 14.4 203.971 14.225 203.405 14.225C202.905 14.225 202.48 14.3333 202.13 14.55C201.78 14.7667 201.388 15.0833 200.955 15.5V25H196.505ZM213.385 30.675L212.485 28.3C213.568 27.9167 214.393 27.4083 214.96 26.775C215.526 26.1417 215.801 25.4667 215.785 24.75L215.735 21.825L217.135 24.275C216.918 24.4583 216.676 24.6 216.41 24.7C216.143 24.7833 215.86 24.825 215.56 24.825C214.876 24.825 214.26 24.6083 213.71 24.175C213.176 23.7417 212.91 23.125 212.91 22.325C212.91 21.575 213.176 20.975 213.71 20.525C214.26 20.0583 214.918 19.825 215.685 19.825C216.668 19.825 217.418 20.1917 217.935 20.925C218.451 21.6583 218.71 22.675 218.71 23.975C218.71 25.5917 218.251 26.975 217.335 28.125C216.435 29.2917 215.118 30.1417 213.385 30.675Z" fill="#FCF3DF"/>
</svg>
