<svg width="100" height="90" viewBox="0 0 100 90" fill="none" xmlns="http://www.w3.org/2000/svg">
<path d="M91.6529 63.3043C91.7991 62.8031 91.9502 62.3044 92.0788 61.7907C97.5761 39.7602 84.1587 13.714 61.4537 0C71.4044 13.567 75.8028 29.9991 71.8939 44.37C71.5455 45.6512 71.1259 46.8822 70.6626 48.078C70.1593 47.7464 69.5262 47.3683 68.6757 46.8973C68.6757 46.8973 46.0894 32.8705 21.6098 8.06157C20.9679 7.40966 34.6638 27.7507 50.2067 44.267C42.8848 40.132 22.4777 25.1971 9.5573 13.3045C11.1446 15.9674 13.0328 18.5311 15.1071 20.9993C25.897 34.761 39.9663 51.742 56.8231 64.7802C44.9791 72.0705 28.2436 72.637 11.5817 64.7877C7.46051 62.8445 3.58539 60.5007 0 57.8378C7.0534 69.1853 17.917 78.9752 31.1384 84.6917C46.9048 91.5072 62.5839 91.045 74.2617 84.8035L74.253 84.8173C74.2929 84.7922 74.3367 84.7658 74.3779 84.7407C74.9024 84.458 75.4219 84.1666 75.9289 83.8614C81.5699 80.9485 92.5771 78.0746 98.4915 89.6507C99.9477 92.4995 103.044 77.4013 91.6629 63.3168C91.6592 63.3106 91.6567 63.308 91.6529 63.3043Z" fill="#282828"/>
</svg>
